<svg width="35" height="35" viewBox="0 0 35 35" fill="none" xmlns="http://www.w3.org/2000/svg">
<path d="M22.6045 2.9165H17.1357C16.5317 2.9165 16.042 3.4062 16.042 4.01025V8.85322C11.0949 9.56085 7.29199 13.8154 7.29199 18.9582H6.19824C4.38606 18.9582 2.91699 20.4273 2.91699 22.2394V30.9894C2.91699 31.5935 3.40669 32.0832 4.01074 32.0832H14.5837C14.7851 32.0832 14.9482 31.92 14.9482 31.7186V27.3436C14.9482 26.9409 15.2748 26.6144 15.6774 26.6144H19.3232C19.7259 26.6144 20.0524 26.9409 20.0524 27.3436V31.7186C20.0524 31.92 20.2156 32.0832 20.417 32.0832H30.9899C31.594 32.0832 32.0837 31.5935 32.0837 30.9894V22.2394C32.0837 20.4273 30.6145 18.9582 28.8024 18.9582H27.7087C27.7087 13.5654 23.527 9.14936 18.2295 8.77548V7.2915H22.6045C23.0071 7.2915 23.3337 6.96504 23.3337 6.56234V3.64567C23.3337 3.24297 23.0071 2.9165 22.6045 2.9165ZM22.6045 17.1353V20.0519C22.6045 20.656 22.1148 21.1457 21.5107 21.1457C20.9067 21.1457 20.417 20.656 20.417 20.0519V17.1353C20.417 16.5312 20.9067 16.0415 21.5107 16.0415C22.1148 16.0415 22.6045 16.5312 22.6045 17.1353ZM17.1357 16.0415C17.7398 16.0415 18.2295 16.5312 18.2295 17.1353V20.0519C18.2295 20.656 17.7398 21.1457 17.1357 21.1457C16.5317 21.1457 16.042 20.656 16.042 20.0519V17.1353C16.042 16.5312 16.5317 16.0415 17.1357 16.0415ZM13.8545 17.1353V20.0519C13.8545 20.656 13.3648 21.1457 12.7607 21.1457C12.1567 21.1457 11.667 20.656 11.667 20.0519V17.1353C11.667 16.5312 12.1567 16.0415 12.7607 16.0415C13.3648 16.0415 13.8545 16.5312 13.8545 17.1353ZM8.38574 22.604C8.9898 22.604 9.47949 23.0937 9.47949 23.6978V27.3436C9.47949 27.9476 8.9898 28.4373 8.38574 28.4373C7.78169 28.4373 7.29199 27.9476 7.29199 27.3436V23.6978C7.29199 23.0937 7.78169 22.604 8.38574 22.604ZM27.7087 23.6978V27.3436C27.7087 27.9476 27.219 28.4373 26.6149 28.4373C26.0109 28.4373 25.5212 27.9476 25.5212 27.3436V23.6978C25.5212 23.0937 26.0109 22.604 26.6149 22.604C27.219 22.604 27.7087 23.0937 27.7087 23.6978Z" fill="#CC9DFF"/>
</svg>
