<svg width="41" height="41" viewBox="0 0 41 41" fill="none" xmlns="http://www.w3.org/2000/svg">
<path fill-rule="evenodd" clip-rule="evenodd" d="M20 5C11.1635 5 4 12.1635 4 21C4 29.8365 11.1635 37 20 37C28.8365 37 36 29.8365 36 21C36 12.1635 28.8365 5 20 5ZM16.4822 12.5182C17.3924 12.4768 17.6833 12.4667 20.0008 12.4667H19.9981C22.3164 12.4667 22.6061 12.4768 23.5164 12.5182C24.4249 12.5598 25.0453 12.7037 25.5893 12.9147C26.1511 13.1325 26.6257 13.424 27.1004 13.8987C27.5751 14.373 27.8667 14.8491 28.0853 15.4103C28.2951 15.9529 28.4391 16.573 28.4818 17.4815C28.5227 18.3917 28.5333 18.6825 28.5333 21.0001C28.5333 23.3176 28.5227 23.6077 28.4818 24.518C28.4391 25.4261 28.2951 26.0463 28.0853 26.5891C27.8667 27.1502 27.5751 27.6263 27.1004 28.1006C26.6263 28.5753 26.1509 28.8675 25.5899 29.0855C25.0469 29.2965 24.4261 29.4403 23.5177 29.4819C22.6074 29.5234 22.3175 29.5335 19.9997 29.5335C17.6824 29.5335 17.3917 29.5234 16.4815 29.4819C15.5732 29.4403 14.9529 29.2965 14.41 29.0855C13.8491 28.8675 13.373 28.5753 12.8989 28.1006C12.4243 27.6263 12.1328 27.1502 11.9147 26.5889C11.7038 26.0463 11.56 25.4263 11.5182 24.5178C11.477 23.6076 11.4667 23.3176 11.4667 21.0001C11.4667 18.6825 11.4773 18.3915 11.5181 17.4813C11.5589 16.5732 11.7029 15.9529 11.9145 15.4101C12.1331 14.8491 12.4247 14.373 12.8994 13.8987C13.3737 13.4242 13.8498 13.1326 14.4111 12.9147C14.9537 12.7037 15.5737 12.5598 16.4822 12.5182Z" fill="white"/>
<path fill-rule="evenodd" clip-rule="evenodd" d="M19.2353 14.0046C19.3839 14.0044 19.5439 14.0044 19.7164 14.0045L20.0009 14.0046C22.2793 14.0046 22.5493 14.0128 23.4491 14.0536C24.2811 14.0917 24.7326 14.2307 25.0334 14.3475C25.4317 14.5022 25.7155 14.6871 26.0141 14.9858C26.3127 15.2844 26.4976 15.5689 26.6527 15.9671C26.7695 16.2676 26.9087 16.7191 26.9465 17.5511C26.9874 18.4507 26.9963 18.7209 26.9963 20.9982C26.9963 23.2756 26.9874 23.5458 26.9465 24.4454C26.9085 25.2774 26.7695 25.729 26.6527 26.0294C26.498 26.4276 26.3127 26.7112 26.0141 27.0097C25.7154 27.3084 25.4318 27.4933 25.0334 27.648C24.733 27.7653 24.2811 27.904 23.4491 27.942C22.5495 27.9829 22.2793 27.9918 20.0009 27.9918C17.7223 27.9918 17.4522 27.9829 16.5526 27.942C15.7206 27.9036 15.2691 27.7646 14.9681 27.6478C14.5699 27.4931 14.2854 27.3082 13.9867 27.0095C13.6881 26.7108 13.5032 26.4271 13.3481 26.0287C13.2313 25.7283 13.0921 25.2767 13.0543 24.4447C13.0134 23.5452 13.0052 23.2749 13.0052 20.9961C13.0052 18.7174 13.0134 18.4486 13.0543 17.549C13.0923 16.717 13.2313 16.2654 13.3481 15.9646C13.5028 15.5664 13.6881 15.282 13.9867 14.9833C14.2854 14.6846 14.5699 14.4997 14.9681 14.3447C15.2689 14.2274 15.7206 14.0887 16.5526 14.0504C17.3398 14.0149 17.6449 14.0042 19.2353 14.0024V14.0046ZM24.5559 15.4215C23.9906 15.4215 23.5319 15.8796 23.5319 16.4452C23.5319 17.0105 23.9906 17.4692 24.5559 17.4692C25.1213 17.4692 25.5799 17.0105 25.5799 16.4452C25.5799 15.8798 25.1213 15.4212 24.5559 15.4212V15.4215ZM15.6186 21.0002C15.6186 18.5802 17.5806 16.618 20.0007 16.618C22.4208 16.618 24.3824 18.5801 24.3824 21.0002C24.3824 23.4204 22.4209 25.3816 20.0009 25.3816C17.5807 25.3816 15.6186 23.4204 15.6186 21.0002Z" fill="white"/>
<path d="M20.0008 18.1558C21.5717 18.1558 22.8453 19.4292 22.8453 21.0002C22.8453 22.5711 21.5717 23.8447 20.0008 23.8447C18.4298 23.8447 17.1564 22.5711 17.1564 21.0002C17.1564 19.4292 18.4298 18.1558 20.0008 18.1558Z" fill="white"/>
</svg>
