<svg width="35" height="35" viewBox="0 0 35 35" fill="none" xmlns="http://www.w3.org/2000/svg">
<g clip-path="url(#clip0_0_678)">
<path d="M24.9531 21.9163L17.5 28.4378L10.0469 21.9163C4.46094 22.1282 0 26.1272 0 31.0628V31.719C0 33.5305 1.67969 35.0003 3.75 35.0003H31.25C33.3203 35.0003 35 33.5305 35 31.719V31.0628C35 26.1272 30.5391 22.1282 24.9531 21.9163ZM1.0625 5.45533L1.5625 5.55787V9.55005C1.01562 9.83716 0.625 10.3362 0.625 10.9378C0.625 11.512 0.984375 11.9905 1.49219 12.2844L0.273438 16.5432C0.140625 17.0149 0.4375 17.5003 0.867188 17.5003H4.13281C4.5625 17.5003 4.85938 17.0149 4.72656 16.5432L3.50781 12.2844C4.01562 11.9905 4.375 11.512 4.375 10.9378C4.375 10.3362 3.98438 9.83716 3.4375 9.55005V5.95435L8.59375 7.04126C7.92188 8.21705 7.5 9.52955 7.5 10.9378C7.5 15.7708 11.9766 19.6878 17.5 19.6878C23.0234 19.6878 27.5 15.7708 27.5 10.9378C27.5 9.52955 27.0859 8.21705 26.4062 7.04126L33.9297 5.45533C35.3516 5.15454 35.3516 3.60279 33.9297 3.302L19.0547 0.157471C18.0391 -0.0544434 16.9688 -0.0544434 15.9531 0.157471L1.0625 3.29517C-0.351562 3.59595 -0.351562 5.15454 1.0625 5.45533Z" fill="#ACFFD7"/>
</g>
<defs>
<clipPath id="clip0_0_678">
<rect width="35" height="35" fill="white"/>
</clipPath>
</defs>
</svg>
