<svg width="41" height="41" viewBox="0 0 41 41" fill="none" xmlns="http://www.w3.org/2000/svg">
<path fill-rule="evenodd" clip-rule="evenodd" d="M4 21C4 29.8365 11.1635 37 20 37C28.8365 37 36 29.8365 36 21C36 12.1635 28.8365 5 20 5C11.1635 5 4 12.1635 4 21ZM30.0414 20.3877C30.0393 25.6322 25.773 29.8995 20.5274 29.9017H20.5235C18.9311 29.9011 17.3665 29.5016 15.9769 28.7437L10.9333 30.0667L12.2831 25.1365C11.4505 23.6937 11.0124 22.057 11.0131 20.3801C11.0152 15.1345 15.2832 10.8667 20.5273 10.8667C23.0724 10.8678 25.4612 11.8586 27.2575 13.6569C29.0537 15.4552 30.0425 17.8455 30.0414 20.3877Z" fill="white"/>
<path fill-rule="evenodd" clip-rule="evenodd" d="M13.2175 27.8064L16.2105 27.0213L16.4992 27.1927C17.7133 27.9132 19.1051 28.2944 20.5241 28.295H20.5273C24.8858 28.295 28.4331 24.7475 28.4349 20.3872C28.4357 18.2742 27.614 16.2874 26.121 14.7927C24.628 13.298 22.6425 12.4744 20.5304 12.4736C16.1685 12.4736 12.6211 16.0208 12.6193 20.3808C12.6187 21.875 13.0368 23.3301 13.8284 24.5891L14.0164 24.8883L13.2175 27.8064ZM24.9948 22.4361C25.1606 22.5162 25.2726 22.5703 25.3204 22.6501C25.3798 22.7492 25.3798 23.2252 25.1818 23.7806C24.9836 24.3359 24.0339 24.8427 23.5771 24.9109C23.1676 24.9722 22.6493 24.9977 22.0799 24.8167C21.7345 24.7072 21.2918 24.5609 20.7246 24.316C18.496 23.3536 16.9899 21.1936 16.7053 20.7854C16.6853 20.7568 16.6713 20.7368 16.6636 20.7264L16.6617 20.7238C16.5359 20.556 15.6929 19.4312 15.6929 18.2672C15.6929 17.1722 16.2308 16.5982 16.4784 16.334C16.4953 16.316 16.5109 16.2993 16.5249 16.284C16.7428 16.046 17.0004 15.9866 17.1589 15.9866C17.3173 15.9866 17.4759 15.988 17.6145 15.995C17.6315 15.9958 17.6493 15.9957 17.6677 15.9956C17.8063 15.9948 17.9789 15.9938 18.1493 16.403C18.2149 16.5606 18.3108 16.794 18.4119 17.0402C18.6165 17.5383 18.8425 18.0886 18.8823 18.1682C18.9417 18.2872 18.9813 18.426 18.9021 18.5847C18.8902 18.6085 18.8792 18.631 18.8687 18.6524C18.8092 18.7739 18.7654 18.8633 18.6644 18.9812C18.6247 19.0276 18.5836 19.0776 18.5425 19.1276C18.4608 19.2272 18.379 19.3268 18.3078 19.3977C18.1888 19.5162 18.0649 19.6449 18.2035 19.8829C18.3422 20.1209 18.8193 20.8993 19.5261 21.5297C20.2857 22.2073 20.946 22.4937 21.2807 22.6389C21.346 22.6672 21.3989 22.6902 21.4378 22.7096C21.6754 22.8286 21.8141 22.8088 21.9528 22.6501C22.0915 22.4915 22.5471 21.956 22.7055 21.718C22.8639 21.4801 23.0225 21.5197 23.2404 21.599C23.4583 21.6784 24.6271 22.2534 24.8648 22.3724C24.9112 22.3957 24.9546 22.4166 24.9948 22.4361Z" fill="white"/>
</svg>
